<svg width="40" height="40" viewBox="0 0 40 40" fill="none" xmlns="http://www.w3.org/2000/svg">
<circle cx="20" cy="20" r="17.5" fill="white" stroke="url(#paint0_linear_141123_43)" stroke-width="5"/>
<path d="M22.1047 1.26802C21.6897 1.04691 20.915 1.06073 20.915 1.06073C20.9842 1.06073 21.0257 1.07455 21.0534 1.07455C21.3577 1.17129 22.5613 2.16626 22.4644 3.17505C22.4506 3.31324 22.4368 3.45144 22.4091 3.56199C22.4229 3.52053 22.4506 3.43762 22.4783 3.32706C22.4921 3.29943 22.4921 3.25797 22.5059 3.21651C22.6028 2.82958 22.7411 2.24917 22.7411 1.91752C22.7411 1.8346 22.7134 1.75169 22.6719 1.68259C22.5613 1.5444 22.3814 1.42003 22.1047 1.26802Z" fill="#A6006F"/>
<path d="M12.4625 36.8798C12.2964 34.1989 14.3439 32.4992 15.1047 30.6612C15.9348 28.6437 16.4743 34.4753 18.0652 36.0369C19.6561 37.5984 20.0435 37.4326 22.0909 36.4514C24.1383 35.4703 24.0553 33.6462 22.0909 29.4728C20.1265 25.2994 22.4644 28.3535 25.1482 30.454C25.3142 30.5921 25.4941 30.7303 25.6462 30.8685C28.164 32.9828 30.6265 35.9816 30.6265 35.9816C29.4091 34.0746 25.3281 27.6625 24.1107 25.866C22.6719 23.7517 20.6522 18.4175 20.998 17.0356C21.3439 15.6537 21.6759 13.1939 21.9387 11.6047C22.2016 10.0293 21.496 7.83209 21.5652 6.22908C21.6206 4.77807 22.1739 4.75043 22.3953 3.54817C22.4229 3.4238 22.4368 3.29943 22.4506 3.16124C22.5613 2.15244 21.3439 1.15747 21.0395 1.06074C21.0119 1.06074 20.9704 1.04692 20.9012 1.04692C20.002 0.977821 15.4506 1.00546 15.4506 1.00546C15.4506 1.00546 15.3538 1.46149 15.2846 2.15244C15.2569 2.40119 15.2431 2.67757 15.2292 2.96777C15.1739 4.10094 16.2115 4.73661 16.2115 6.07707C16.2115 7.4037 15.3261 8.0532 14.0395 10.1675C12.753 12.2818 13.4032 15.3911 13.4032 17.6575C13.4032 19.9238 10 36.3547 10 36.3547C10 36.3547 10.2905 36.9489 11.9229 37.7781C12.2134 37.9301 12.4625 38.013 12.67 38.0683C12.6423 37.9439 12.6146 37.8333 12.587 37.6952C12.5178 37.4188 12.4763 37.1424 12.4625 36.8798Z" fill="#EC008C"/>
<path d="M30.6403 35.9816C30.6403 35.9816 28.1779 32.9828 25.6601 30.8685C25.4941 30.7303 25.3281 30.5921 25.1621 30.4539C22.4783 28.3396 20.1403 25.2856 22.1047 29.4728C24.0692 33.6462 24.1522 35.4703 22.1047 36.4514C20.0573 37.4326 19.67 37.5984 18.0791 36.0369C16.4881 34.4753 15.9486 28.6575 15.1186 30.6612C14.3715 32.4854 12.3241 34.1851 12.4763 36.8798C12.4901 37.1562 12.5316 37.4326 12.6008 37.7228C12.6285 37.8472 12.6561 37.9715 12.6838 38.0959C13.6798 38.3446 14.0534 37.6813 15.1462 37.3635C16.4743 36.9627 16.6542 37.8195 19.2134 38.3447C21.5929 38.8283 21.4545 38.3308 22.6028 37.2253C23.2115 36.6449 25.4111 36.2441 27.9842 36.5343C30.5573 36.8246 31 36.5343 31 36.5343C31 36.5343 30.8478 36.3271 30.6403 35.9816Z" fill="#A6006F"/>
<path d="M20.2095 7.30697L18.4387 7.63863L17.0553 7.90119L14.0395 8.46777L14.6621 11.66L20.832 10.4992L20.2095 7.30697Z" fill="black"/>
<path d="M22.5613 6.5331C21.9526 7.43134 21.4269 8.20521 21.2194 8.32958C20.915 8.50923 20.8735 8.60596 20.0711 9.20018C19.2826 9.7944 18.7431 10.4577 18.7431 10.4577C18.7431 10.4577 19.2411 10.3748 19.6976 10.1122C20.168 9.84968 20.2925 9.83586 20.0988 10.1261C19.9051 10.4163 18.3281 11.3421 18.3281 11.3421C18.3281 11.3421 18.9921 11.5218 19.9743 11.0796C20.9704 10.6374 20.8459 10.361 21.3577 9.68385C21.8696 9.00671 21.5929 9.07581 23.1285 7.87355C23.2668 7.763 23.5988 7.38988 23.834 7.14114C23.5573 6.80948 23.1423 6.57455 22.5613 6.5331Z" fill="#A6006F"/>
<path d="M17.7747 7.763L18.4249 7.63863C18.2589 7.59717 17.9545 7.52808 17.4289 7.44516C16.8063 7.34843 16.419 7.45898 16.3636 7.4728C15.4783 7.56953 14.9664 6.58838 14.9664 6.58838C14.8142 6.27054 14.6482 5.92506 14.496 5.62104C14.0257 5.70395 13.6245 5.91124 13.2925 6.18762C13.7075 6.72657 14.2332 7.29315 14.6067 7.66627C14.7036 7.80446 14.9664 8.10848 15.5889 8.24667C16.4051 8.44014 16.4743 8.45396 16.9308 8.55069C17.6502 8.7027 18.3557 8.26049 18.3557 8.26049C18.3557 8.26049 18.1344 7.99793 17.7747 7.763Z" fill="#A6006F"/>
<defs>
<linearGradient id="paint0_linear_141123_43" x1="19.5" y1="38.5" x2="5" y2="4.5" gradientUnits="userSpaceOnUse">
<stop stop-color="#CFCFCF" stop-opacity="0.68"/>
<stop offset="1"/>
</linearGradient>
</defs>
</svg>
